<mxfile host="app.diagrams.net" agent="Mozilla/5.0 (Windows NT 10.0; Win64; x64) AppleWebKit/537.36 (KHTML, like Gecko) Chrome/133.0.0.0 Safari/537.36" version="26.0.16">
  <diagram name="第 1 页" id="MyWn2kyQZMS0ElsT0Q3L">
    <mxGraphModel dx="1050" dy="1738" grid="1" gridSize="10" guides="1" tooltips="1" connect="1" arrows="1" fold="1" page="1" pageScale="1" pageWidth="827" pageHeight="1169" math="0" shadow="0">
      <root>
        <mxCell id="0" />
        <mxCell id="1" parent="0" />
        <mxCell id="fJwBA4sQg2YbwmLH69SW-22" style="edgeStyle=orthogonalEdgeStyle;rounded=0;orthogonalLoop=1;jettySize=auto;html=1;exitX=1;exitY=0.5;exitDx=0;exitDy=0;entryX=0;entryY=0.5;entryDx=0;entryDy=0;" edge="1" parent="1" source="fJwBA4sQg2YbwmLH69SW-2" target="fJwBA4sQg2YbwmLH69SW-6">
          <mxGeometry relative="1" as="geometry" />
        </mxCell>
        <mxCell id="fJwBA4sQg2YbwmLH69SW-23" style="edgeStyle=orthogonalEdgeStyle;rounded=0;orthogonalLoop=1;jettySize=auto;html=1;exitX=1;exitY=0.5;exitDx=0;exitDy=0;entryX=0;entryY=0.5;entryDx=0;entryDy=0;" edge="1" parent="1" source="fJwBA4sQg2YbwmLH69SW-2" target="fJwBA4sQg2YbwmLH69SW-8">
          <mxGeometry relative="1" as="geometry" />
        </mxCell>
        <mxCell id="fJwBA4sQg2YbwmLH69SW-24" style="edgeStyle=orthogonalEdgeStyle;rounded=0;orthogonalLoop=1;jettySize=auto;html=1;exitX=1;exitY=0.5;exitDx=0;exitDy=0;entryX=0;entryY=0.75;entryDx=0;entryDy=0;" edge="1" parent="1" source="fJwBA4sQg2YbwmLH69SW-2" target="fJwBA4sQg2YbwmLH69SW-7">
          <mxGeometry relative="1" as="geometry" />
        </mxCell>
        <mxCell id="fJwBA4sQg2YbwmLH69SW-2" value="&lt;p class=&quot;MsoNormal&quot;&gt;&lt;font face=&quot;Verdana&quot; style=&quot;font-size: 20px;&quot;&gt;云边协同技术&lt;/font&gt;&lt;/p&gt;" style="rounded=0;whiteSpace=wrap;html=1;fillColor=#ffe6cc;strokeColor=#d79b00;" vertex="1" parent="1">
          <mxGeometry x="200" y="10" width="140" height="75" as="geometry" />
        </mxCell>
        <mxCell id="fJwBA4sQg2YbwmLH69SW-19" style="edgeStyle=orthogonalEdgeStyle;rounded=0;orthogonalLoop=1;jettySize=auto;html=1;entryX=0;entryY=0.5;entryDx=0;entryDy=0;" edge="1" parent="1" source="fJwBA4sQg2YbwmLH69SW-3" target="fJwBA4sQg2YbwmLH69SW-17">
          <mxGeometry relative="1" as="geometry" />
        </mxCell>
        <mxCell id="fJwBA4sQg2YbwmLH69SW-20" style="edgeStyle=orthogonalEdgeStyle;rounded=0;orthogonalLoop=1;jettySize=auto;html=1;entryX=0;entryY=0.5;entryDx=0;entryDy=0;" edge="1" parent="1" source="fJwBA4sQg2YbwmLH69SW-3" target="fJwBA4sQg2YbwmLH69SW-2">
          <mxGeometry relative="1" as="geometry" />
        </mxCell>
        <mxCell id="fJwBA4sQg2YbwmLH69SW-21" style="edgeStyle=orthogonalEdgeStyle;rounded=0;orthogonalLoop=1;jettySize=auto;html=1;entryX=0;entryY=0.5;entryDx=0;entryDy=0;" edge="1" parent="1" source="fJwBA4sQg2YbwmLH69SW-3" target="fJwBA4sQg2YbwmLH69SW-15">
          <mxGeometry relative="1" as="geometry" />
        </mxCell>
        <mxCell id="fJwBA4sQg2YbwmLH69SW-3" value="&lt;font face=&quot;Verdana&quot; style=&quot;font-size: 20px;&quot;&gt;相关工作&lt;/font&gt;" style="rounded=0;whiteSpace=wrap;html=1;fillColor=#dae8fc;strokeColor=#6c8ebf;" vertex="1" parent="1">
          <mxGeometry x="20" y="190" width="100" height="70" as="geometry" />
        </mxCell>
        <mxCell id="fJwBA4sQg2YbwmLH69SW-6" value="&lt;font style=&quot;font-size: 20px;&quot; face=&quot;Verdana&quot;&gt;云计算&lt;/font&gt;" style="rounded=0;whiteSpace=wrap;html=1;fillColor=#d5e8d4;strokeColor=#82b366;" vertex="1" parent="1">
          <mxGeometry x="400" y="27.5" width="350" height="40" as="geometry" />
        </mxCell>
        <mxCell id="fJwBA4sQg2YbwmLH69SW-7" value="&lt;p class=&quot;MsoNormal&quot;&gt;&lt;font style=&quot;font-size: 20px;&quot; face=&quot;Verdana&quot;&gt;边缘计算&lt;/font&gt;&lt;/p&gt;" style="rounded=0;whiteSpace=wrap;html=1;fillColor=#d5e8d4;strokeColor=#82b366;" vertex="1" parent="1">
          <mxGeometry x="400" y="-30" width="350" height="40" as="geometry" />
        </mxCell>
        <mxCell id="fJwBA4sQg2YbwmLH69SW-8" value="&lt;span style=&quot;font-family: Verdana; font-size: 20px;&quot;&gt;云边协同&lt;/span&gt;" style="rounded=0;whiteSpace=wrap;html=1;fillColor=#d5e8d4;strokeColor=#82b366;" vertex="1" parent="1">
          <mxGeometry x="400" y="85" width="350" height="40" as="geometry" />
        </mxCell>
        <mxCell id="fJwBA4sQg2YbwmLH69SW-9" value="&lt;font style=&quot;font-size: 20px;&quot; face=&quot;Verdana&quot;&gt;&lt;span style=&quot;background-color: transparent; color: light-dark(rgb(0, 0, 0), rgb(255, 255, 255));&quot;&gt;云边协同&lt;/span&gt;&lt;span style=&quot;background-color: transparent; color: light-dark(rgb(0, 0, 0), rgb(255, 255, 255));&quot;&gt;&lt;font style=&quot;&quot;&gt;车联网架构&lt;/font&gt;&lt;/span&gt;&lt;/font&gt;" style="rounded=0;whiteSpace=wrap;html=1;fillColor=#d5e8d4;strokeColor=#82b366;" vertex="1" parent="1">
          <mxGeometry x="400" y="147.5" width="350" height="40" as="geometry" />
        </mxCell>
        <mxCell id="fJwBA4sQg2YbwmLH69SW-10" value="&lt;p style=&quot;text-indent:0.0000pt;mso-char-indent-count:0.0000;&quot; class=&quot;15&quot;&gt;&lt;font style=&quot;font-size: 20px;&quot; face=&quot;Verdana&quot;&gt;&lt;span&gt;云边协同&lt;/span&gt;车联网资源分配技术&lt;/font&gt;&lt;span style=&quot;mso-spacerun:&#39;yes&#39;;font-family:黑体;mso-ascii-font-family:&#39;Times New Roman&#39;;&lt;br/&gt;mso-hansi-font-family:&#39;Times New Roman&#39;;mso-bidi-font-family:&#39;Times New Roman&#39;;mso-bidi-font-weight:bold;&lt;br/&gt;font-size:14.0000pt;mso-font-kerning:1.0000pt;&quot;&gt;&lt;/span&gt;&lt;/p&gt;" style="rounded=0;whiteSpace=wrap;html=1;fillColor=#d5e8d4;strokeColor=#82b366;" vertex="1" parent="1">
          <mxGeometry x="400" y="262.5" width="350" height="40" as="geometry" />
        </mxCell>
        <mxCell id="fJwBA4sQg2YbwmLH69SW-11" value="&lt;p class=&quot;MsoNormal&quot;&gt;&lt;font style=&quot;font-size: 20px;&quot; face=&quot;Verdana&quot;&gt;&lt;span style=&quot;background-image: initial; background-position: initial; background-size: initial; background-repeat: initial; background-attachment: initial; background-origin: initial; background-clip: initial;&quot;&gt;&lt;font style=&quot;&quot;&gt;云边协同&lt;/font&gt;&lt;/span&gt;车联网计算卸载技术&lt;/font&gt;&lt;/p&gt;" style="rounded=0;whiteSpace=wrap;html=1;fillColor=#d5e8d4;strokeColor=#82b366;" vertex="1" parent="1">
          <mxGeometry x="400" y="205" width="350" height="40" as="geometry" />
        </mxCell>
        <mxCell id="fJwBA4sQg2YbwmLH69SW-12" value="&lt;p class=&quot;MsoNormal&quot;&gt;&lt;font face=&quot;Verdana&quot; style=&quot;font-size: 20px;&quot;&gt;&lt;font style=&quot;&quot;&gt;D&lt;/font&gt;&lt;/font&gt;&lt;font style=&quot;background-color: transparent; color: light-dark(rgb(0, 0, 0), rgb(255, 255, 255)); font-size: 20px;&quot; face=&quot;Verdana&quot;&gt;2&lt;/font&gt;&lt;font style=&quot;background-color: transparent; color: light-dark(rgb(0, 0, 0), rgb(255, 255, 255)); font-size: 20px;&quot; face=&quot;Verdana&quot;&gt;D&lt;/font&gt;&lt;span style=&quot;background-color: transparent; color: light-dark(rgb(0, 0, 0), rgb(255, 255, 255)); font-size: 20px; font-family: Verdana;&quot;&gt;通信技术&lt;/span&gt;&lt;/p&gt;" style="rounded=0;whiteSpace=wrap;html=1;fillColor=#d5e8d4;strokeColor=#82b366;" vertex="1" parent="1">
          <mxGeometry x="400" y="330" width="350" height="40" as="geometry" />
        </mxCell>
        <mxCell id="fJwBA4sQg2YbwmLH69SW-13" value="&lt;p class=&quot;MsoNormal&quot;&gt;&lt;font style=&quot;font-size: 20px;&quot; face=&quot;Verdana&quot;&gt;&lt;font style=&quot;&quot;&gt;NOMA&lt;/font&gt;通信技术&lt;/font&gt;&lt;/p&gt;" style="rounded=0;whiteSpace=wrap;html=1;fillColor=#d5e8d4;strokeColor=#82b366;" vertex="1" parent="1">
          <mxGeometry x="400" y="380" width="350" height="40" as="geometry" />
        </mxCell>
        <mxCell id="fJwBA4sQg2YbwmLH69SW-30" style="edgeStyle=orthogonalEdgeStyle;rounded=0;orthogonalLoop=1;jettySize=auto;html=1;exitX=1;exitY=0.5;exitDx=0;exitDy=0;entryX=0;entryY=0.75;entryDx=0;entryDy=0;" edge="1" parent="1" source="fJwBA4sQg2YbwmLH69SW-15" target="fJwBA4sQg2YbwmLH69SW-12">
          <mxGeometry relative="1" as="geometry" />
        </mxCell>
        <mxCell id="fJwBA4sQg2YbwmLH69SW-31" style="edgeStyle=orthogonalEdgeStyle;rounded=0;orthogonalLoop=1;jettySize=auto;html=1;exitX=1;exitY=0.5;exitDx=0;exitDy=0;" edge="1" parent="1" source="fJwBA4sQg2YbwmLH69SW-15" target="fJwBA4sQg2YbwmLH69SW-13">
          <mxGeometry relative="1" as="geometry" />
        </mxCell>
        <mxCell id="fJwBA4sQg2YbwmLH69SW-15" value="&lt;p class=&quot;MsoNormal&quot;&gt;&lt;span style=&quot;font-family: Verdana; font-size: 20px;&quot;&gt;网络通信技术&lt;/span&gt;&lt;/p&gt;" style="rounded=0;whiteSpace=wrap;html=1;fillColor=#ffe6cc;strokeColor=#d79b00;" vertex="1" parent="1">
          <mxGeometry x="200" y="340" width="140" height="75" as="geometry" />
        </mxCell>
        <mxCell id="fJwBA4sQg2YbwmLH69SW-27" style="edgeStyle=orthogonalEdgeStyle;rounded=0;orthogonalLoop=1;jettySize=auto;html=1;exitX=1;exitY=0.5;exitDx=0;exitDy=0;entryX=0;entryY=0.5;entryDx=0;entryDy=0;" edge="1" parent="1" source="fJwBA4sQg2YbwmLH69SW-17" target="fJwBA4sQg2YbwmLH69SW-11">
          <mxGeometry relative="1" as="geometry" />
        </mxCell>
        <mxCell id="fJwBA4sQg2YbwmLH69SW-28" style="edgeStyle=orthogonalEdgeStyle;rounded=0;orthogonalLoop=1;jettySize=auto;html=1;exitX=1;exitY=0.5;exitDx=0;exitDy=0;entryX=0;entryY=0.5;entryDx=0;entryDy=0;" edge="1" parent="1" source="fJwBA4sQg2YbwmLH69SW-17" target="fJwBA4sQg2YbwmLH69SW-9">
          <mxGeometry relative="1" as="geometry" />
        </mxCell>
        <mxCell id="fJwBA4sQg2YbwmLH69SW-29" style="edgeStyle=orthogonalEdgeStyle;rounded=0;orthogonalLoop=1;jettySize=auto;html=1;exitX=1;exitY=0.5;exitDx=0;exitDy=0;entryX=0;entryY=0.5;entryDx=0;entryDy=0;" edge="1" parent="1" source="fJwBA4sQg2YbwmLH69SW-17" target="fJwBA4sQg2YbwmLH69SW-10">
          <mxGeometry relative="1" as="geometry" />
        </mxCell>
        <mxCell id="fJwBA4sQg2YbwmLH69SW-17" value="&lt;p class=&quot;MsoNormal&quot;&gt;&lt;span style=&quot;font-family: Verdana; font-size: 20px;&quot;&gt;车联网技术&lt;/span&gt;&lt;/p&gt;" style="rounded=0;whiteSpace=wrap;html=1;fillColor=#ffe6cc;strokeColor=#d79b00;" vertex="1" parent="1">
          <mxGeometry x="200" y="187.5" width="140" height="75" as="geometry" />
        </mxCell>
      </root>
    </mxGraphModel>
  </diagram>
</mxfile>
